<?xml version="1.0" encoding="utf-8"?>
<!-- Generator: Adobe Illustrator 23.0.2, SVG Export Plug-In . SVG Version: 6.00 Build 0)  -->
<svg version="1.1" id="Camada_1" xmlns="http://www.w3.org/2000/svg" xmlns:xlink="http://www.w3.org/1999/xlink" x="0px" y="0px"
	 viewBox="0 0 144 10.9" style="enable-background:new 0 0 144 10.9;" xml:space="preserve">
<style type="text/css">
	.st0{fill-rule:evenodd;clip-rule:evenodd;fill:#6E593C;}
	.st1{fill-rule:evenodd;clip-rule:evenodd;fill:#554633;}
</style>
<title>bg-landscape</title>
<path class="st0" d="M0,0.4l9.1,0.7l5,2.2l5.4-2.2l10.8,1.1l6.8,2.2l7.2-1.5l8.3,0.7l5-1.8l6.1,0.7L72,4.3l3.6-2.5h7.6l5.4,1.8
	l7.9-1.8l7.2,1.4l5-3.2l6.8,2.5l5,2.5l7.2-1.8l6.5-3.2l4.7,0.7l5.1-0.4v7.6L0,6.7V0.4z"/>
<path class="st1" d="M0,2.2L8.4,3l5,2.2L18.8,3l10.8,1.1l6.8,2.2l7.2-1.4l8.3,0.7l5-1.8L63,4.5l8.3,1.7l3.6-2.5h7.6l5.4,1.8l7.9-1.8
	l7.2,1.4l5-3.2l6.8,2.5l5,2.5l7.2-1.8l6.5-3.2l4.7,0.7l5.8-0.4V12H0V2.2z"/>
</svg>
